<svg width="35" height="32" viewBox="0 0 35 32" fill="none" xmlns="http://www.w3.org/2000/svg">
<path d="M11.05 0.318268C10.4798 0.318268 9.93291 0.550053 9.52971 0.962633C9.12651 1.37521 8.89999 1.93479 8.89999 2.51827C8.89999 3.10174 9.12651 3.66132 9.52971 4.0739C9.93291 4.48648 10.4798 4.71827 11.05 4.71827H23.95C24.5202 4.71827 25.0671 4.48648 25.4703 4.0739C25.8735 3.66132 26.1 3.10174 26.1 2.51827C26.1 1.93479 25.8735 1.37521 25.4703 0.962633C25.0671 0.550053 24.5202 0.318268 23.95 0.318268H11.05ZM4.59999 9.11827C4.59999 8.53479 4.82651 7.97521 5.22971 7.56263C5.63291 7.15005 6.17977 6.91827 6.74999 6.91827H28.25C28.8202 6.91827 29.3671 7.15005 29.7703 7.56263C30.1735 7.97521 30.4 8.53479 30.4 9.11827C30.4 9.70174 30.1735 10.2613 29.7703 10.6739C29.3671 11.0865 28.8202 11.3183 28.25 11.3183H6.74999C6.17977 11.3183 5.63291 11.0865 5.22971 10.6739C4.82651 10.2613 4.59999 9.70174 4.59999 9.11827ZM0.299988 17.9183C0.299988 16.7513 0.753022 15.6322 1.55943 14.807C2.36583 13.9818 3.45956 13.5183 4.59999 13.5183H30.4C31.5404 13.5183 32.6341 13.9818 33.4405 14.807C34.247 15.6322 34.7 16.7513 34.7 17.9183V26.7183C34.7 27.8852 34.247 29.0044 33.4405 29.8295C32.6341 30.6547 31.5404 31.1183 30.4 31.1183H4.59999C3.45956 31.1183 2.36583 30.6547 1.55943 29.8295C0.753022 29.0044 0.299988 27.8852 0.299988 26.7183V17.9183Z" fill="#078E85"/>
</svg>
