<svg width="35" height="32" viewBox="0 0 35 32" fill="none" xmlns="http://www.w3.org/2000/svg">
<path d="M11.0508 0.414551C10.4806 0.414551 9.93371 0.646336 9.5305 1.05892C9.1273 1.4715 8.90078 2.03107 8.90078 2.61455C8.90078 3.19803 9.1273 3.75761 9.5305 4.17019C9.93371 4.58277 10.4806 4.81455 11.0508 4.81455H23.9508C24.521 4.81455 25.0679 4.58277 25.4711 4.17019C25.8743 3.75761 26.1008 3.19803 26.1008 2.61455C26.1008 2.03107 25.8743 1.4715 25.4711 1.05892C25.0679 0.646336 24.521 0.414551 23.9508 0.414551H11.0508ZM4.60078 9.21455C4.60078 8.63107 4.8273 8.0715 5.2305 7.65892C5.63371 7.24634 6.18057 7.01455 6.75078 7.01455H28.2508C28.821 7.01455 29.3679 7.24634 29.7711 7.65892C30.1743 8.0715 30.4008 8.63107 30.4008 9.21455C30.4008 9.79803 30.1743 10.3576 29.7711 10.7702C29.3679 11.1828 28.821 11.4146 28.2508 11.4146H6.75078C6.18057 11.4146 5.63371 11.1828 5.2305 10.7702C4.8273 10.3576 4.60078 9.79803 4.60078 9.21455ZM0.300781 18.0146C0.300781 16.8476 0.753816 15.7284 1.56022 14.9033C2.36663 14.0781 3.46035 13.6146 4.60078 13.6146H30.4008C31.5412 13.6146 32.6349 14.0781 33.4413 14.9033C34.2477 15.7284 34.7008 16.8476 34.7008 18.0146V26.8146C34.7008 27.9815 34.2477 29.1007 33.4413 29.9258C32.6349 30.751 31.5412 31.2146 30.4008 31.2146H4.60078C3.46035 31.2146 2.36663 30.751 1.56022 29.9258C0.753816 29.1007 0.300781 27.9815 0.300781 26.8146V18.0146Z" fill="#005A9E"/>
</svg>
