<svg width="38" height="38" viewBox="0 0 38 38" fill="none" xmlns="http://www.w3.org/2000/svg">
<path d="M11.121 3.65798C12.3101 4.06077 13.4412 4.61756 14.4856 5.31415C15.9606 4.93717 17.4773 4.74779 18.9997 4.75048C20.572 4.75048 22.0888 4.94682 23.5106 5.31257C24.5546 4.61665 25.6852 4.0604 26.8736 3.65798C27.9772 3.28273 29.5495 2.67473 30.4836 3.70865C31.117 4.41165 31.2753 5.58965 31.3877 6.48898C31.5144 7.49282 31.5445 8.80065 31.212 10.099C32.4834 11.7409 33.2497 13.6995 33.2497 15.8338C33.2497 19.067 31.4985 21.8742 28.9066 23.8186C27.6592 24.7425 26.2758 25.4668 24.8058 25.9656C25.1446 26.7414 25.333 27.5996 25.333 28.5005V33.2505C25.333 33.6704 25.1662 34.0731 24.8693 34.3701C24.5724 34.667 24.1696 34.8338 23.7497 34.8338H14.2497C13.8298 34.8338 13.4271 34.667 13.1301 34.3701C12.8332 34.0731 12.6664 33.6704 12.6664 33.2505V31.6814C11.1543 31.8667 9.88605 31.702 8.8078 31.2444C7.68046 30.7662 6.89513 30.0252 6.30455 29.3159C5.74405 28.6446 5.13288 27.1309 4.24938 26.8364C4.05206 26.7707 3.86961 26.6668 3.71245 26.5306C3.55529 26.3943 3.4265 26.2285 3.33344 26.0425C3.14548 25.6669 3.11443 25.232 3.24713 24.8335C3.37983 24.435 3.66539 24.1055 4.04101 23.9175C4.41663 23.7296 4.85154 23.6985 5.25005 23.8312C6.30455 24.1827 6.99171 24.9427 7.46196 25.5539C8.22196 26.5356 8.83946 27.8181 10.0428 28.3295C10.5384 28.5401 11.2651 28.6778 12.402 28.5226L12.6664 28.4688C12.6694 27.6072 12.8488 26.7552 13.1936 25.9656C11.7236 25.4668 10.3402 24.7425 9.0928 23.8186C6.50088 21.8742 4.74971 19.0686 4.74971 15.8338C4.74971 13.7027 5.51446 11.7457 6.78271 10.1053C6.45021 8.80698 6.47871 7.49598 6.60538 6.49057L6.6133 6.4304C6.72888 5.5089 6.86346 4.42432 7.50946 3.70865C8.44363 2.67473 10.0175 3.28432 11.1195 3.65957L11.121 3.65798Z" fill="#47358D"/>
</svg>
