<svg width="31" height="31" viewBox="0 0 31 31" fill="none" xmlns="http://www.w3.org/2000/svg">
<path d="M28.4043 3.03568C29.9699 4.60171 30.8506 6.72471 30.8531 8.93911V22.5035C30.8502 24.7177 29.9693 26.8404 28.4036 28.4061C26.8379 29.9718 24.7152 30.8527 22.5009 30.8557H8.93813C6.7239 30.8527 4.60119 29.9718 3.03549 28.4061C1.46979 26.8404 0.588881 24.7177 0.585938 22.5035L0.585938 8.93911C0.588881 6.72487 1.46979 4.60217 3.03549 3.03647C4.60119 1.47076 6.7239 0.589857 8.93813 0.586914H22.5025C24.7169 0.589442 26.8383 1.47008 28.4043 3.03568ZM28.166 8.93911C28.1639 7.43741 27.5666 5.99778 26.5051 4.93562C25.4435 3.87346 24.0042 3.2754 22.5025 3.27246H8.93813C7.43589 3.27456 5.99577 3.87225 4.93353 4.9345C3.87128 5.99675 3.27358 7.43686 3.27148 8.93911V22.5035C3.274 24.0054 3.87188 25.4452 4.93409 26.5071C5.99629 27.569 7.43616 28.1664 8.93813 28.1685H22.5025C24.0042 28.166 25.4437 27.5684 26.5055 26.5065C27.5674 25.4446 28.165 24.0052 28.1676 22.5035L28.166 8.93911Z" fill="#47358D"/>
<path d="M21.2414 10.2076C22.5182 11.4846 23.3127 13.1648 23.4896 14.9619C23.6665 16.759 23.2148 18.5619 22.2115 20.0633C21.2081 21.5647 19.7153 22.6718 17.9872 23.196C16.2592 23.7201 14.4028 23.6289 12.7345 22.9378C11.0661 22.2468 9.68903 20.9986 8.83775 19.4061C7.98648 17.8135 7.71372 15.9751 8.06595 14.2039C8.41818 12.4328 9.37361 10.8386 10.7694 9.69296C12.1653 8.54729 13.9152 7.92104 15.721 7.9209C16.7462 7.92082 17.7615 8.12272 18.7087 8.51508C19.6559 8.90743 20.5165 9.48255 21.2414 10.2076ZM19.3345 19.3352C20.1686 18.4991 20.6869 17.3996 20.8013 16.2242C20.9157 15.0487 20.619 13.8699 19.9619 12.8887C19.3047 11.9074 18.3277 11.1842 17.1973 10.8424C16.0668 10.5006 14.8528 10.5613 13.762 11.0141C12.6713 11.4669 11.7712 12.2838 11.2152 13.3258C10.6592 14.3677 10.4815 15.5701 10.7125 16.7283C10.9435 17.8865 11.5689 18.9288 12.4821 19.6777C13.3954 20.4265 14.54 20.8357 15.721 20.8353C17.0766 20.8334 18.3761 20.2939 19.3345 19.3352Z" fill="#47358D"/>
<path d="M25.2359 6.22137C25.5576 6.54331 25.7577 6.96681 25.8021 7.41972C25.8465 7.87264 25.7326 8.32695 25.4796 8.70526C25.2267 9.08358 24.8504 9.3625 24.4149 9.49451C23.9794 9.62651 23.5115 9.60344 23.0911 9.42923C22.6707 9.25501 22.3237 8.94043 22.1092 8.53906C21.8947 8.13769 21.826 7.67438 21.9148 7.22803C22.0035 6.78169 22.2443 6.37993 22.5961 6.09119C22.9478 5.80246 23.3888 5.64461 23.8439 5.64453C24.1025 5.64449 24.3585 5.69541 24.5973 5.79439C24.8362 5.89337 25.0532 6.03846 25.2359 6.22137Z" fill="#47358D"/>
</svg>
