<svg width="31" height="31" viewBox="0 0 31 31" fill="none" xmlns="http://www.w3.org/2000/svg">
<path d="M9.37496 0.916504H21.625C26.2916 0.916504 30.0833 4.70817 30.0833 9.37484V21.6248C30.0833 23.8681 29.1921 26.0195 27.6059 27.6058C26.0197 29.192 23.8682 30.0832 21.625 30.0832H9.37496C4.70829 30.0832 0.916626 26.2915 0.916626 21.6248V9.37484C0.916626 7.13155 1.80777 4.98014 3.39401 3.39389C4.98026 1.80765 7.13167 0.916504 9.37496 0.916504ZM9.08329 3.83317C7.69091 3.83317 6.35555 4.38629 5.37098 5.37086C4.38642 6.35543 3.83329 7.69078 3.83329 9.08317V21.9165C3.83329 24.8186 6.18121 27.1665 9.08329 27.1665H21.9166C23.309 27.1665 24.6444 26.6134 25.6289 25.6288C26.6135 24.6442 27.1666 23.3089 27.1666 21.9165V9.08317C27.1666 6.18109 24.8187 3.83317 21.9166 3.83317H9.08329ZM23.1562 6.02067C23.6397 6.02067 24.1033 6.21273 24.4452 6.55459C24.7871 6.89645 24.9791 7.36012 24.9791 7.84359C24.9791 8.32705 24.7871 8.79072 24.4452 9.13258C24.1033 9.47445 23.6397 9.6665 23.1562 9.6665C22.6727 9.6665 22.2091 9.47445 21.8672 9.13258C21.5253 8.79072 21.3333 8.32705 21.3333 7.84359C21.3333 7.36012 21.5253 6.89645 21.8672 6.55459C22.2091 6.21273 22.6727 6.02067 23.1562 6.02067ZM15.5 8.20817C17.4338 8.20817 19.2885 8.9764 20.6559 10.3439C22.0234 11.7113 22.7916 13.566 22.7916 15.4998C22.7916 17.4337 22.0234 19.2884 20.6559 20.6558C19.2885 22.0233 17.4338 22.7915 15.5 22.7915C13.5661 22.7915 11.7114 22.0233 10.344 20.6558C8.97652 19.2884 8.20829 17.4337 8.20829 15.4998C8.20829 13.566 8.97652 11.7113 10.344 10.3439C11.7114 8.9764 13.5661 8.20817 15.5 8.20817ZM15.5 11.1248C14.3396 11.1248 13.2268 11.5858 12.4064 12.4062C11.5859 13.2267 11.125 14.3395 11.125 15.4998C11.125 16.6602 11.5859 17.773 12.4064 18.5934C13.2268 19.4139 14.3396 19.8748 15.5 19.8748C16.6603 19.8748 17.7731 19.4139 18.5936 18.5934C19.414 17.773 19.875 16.6602 19.875 15.4998C19.875 14.3395 19.414 13.2267 18.5936 12.4062C17.7731 11.5858 16.6603 11.1248 15.5 11.1248Z" fill="#808080"/>
</svg>
