<svg width="29" height="29" viewBox="0 0 29 29" fill="none" xmlns="http://www.w3.org/2000/svg">
<path d="M3.92708 0.734375C3.10519 0.734375 2.31696 1.06087 1.73579 1.64204C1.15462 2.22321 0.828125 3.01144 0.828125 3.83333C0.828125 4.65523 1.15462 5.44346 1.73579 6.02463C2.31696 6.6058 3.10519 6.93229 3.92708 6.93229C4.74898 6.93229 5.53721 6.6058 6.11838 6.02463C6.69955 5.44346 7.02604 4.65523 7.02604 3.83333C7.02604 3.01144 6.69955 2.22321 6.11838 1.64204C5.53721 1.06087 4.74898 0.734375 3.92708 0.734375ZM1.01042 9.48438C0.96207 9.48438 0.915703 9.50358 0.881517 9.53777C0.847331 9.57195 0.828125 9.61832 0.828125 9.66667V28.625C0.828125 28.7256 0.909792 28.8073 1.01042 28.8073H6.84375C6.8921 28.8073 6.93846 28.7881 6.97265 28.7539C7.00684 28.7197 7.02604 28.6733 7.02604 28.625V9.66667C7.02604 9.61832 7.00684 9.57195 6.97265 9.53777C6.93846 9.50358 6.8921 9.48438 6.84375 9.48438H1.01042ZM10.4896 9.48438C10.4412 9.48438 10.3949 9.50358 10.3607 9.53777C10.3265 9.57195 10.3073 9.61832 10.3073 9.66667V28.625C10.3073 28.7256 10.389 28.8073 10.4896 28.8073H16.3229C16.3713 28.8073 16.4176 28.7881 16.4518 28.7539C16.486 28.7197 16.5052 28.6733 16.5052 28.625V18.4167C16.5052 17.6915 16.7933 16.996 17.3061 16.4832C17.8189 15.9704 18.5144 15.6823 19.2396 15.6823C19.9648 15.6823 20.6603 15.9704 21.1731 16.4832C21.6859 16.996 21.974 17.6915 21.974 18.4167V28.625C21.974 28.7256 22.0556 28.8073 22.1562 28.8073H27.9896C28.0379 28.8073 28.0843 28.7881 28.1185 28.7539C28.1527 28.7197 28.1719 28.6733 28.1719 28.625V16.0542C28.1719 12.5148 25.0948 9.74687 21.5729 10.0662C20.4833 10.1662 19.4161 10.4358 18.4098 10.8654L16.5052 11.6821V9.66667C16.5052 9.61832 16.486 9.57195 16.4518 9.53777C16.4176 9.50358 16.3713 9.48438 16.3229 9.48438H10.4896Z" fill="#808080"/>
</svg>
