<svg width="22" height="25" viewBox="0 0 22 25" fill="none" xmlns="http://www.w3.org/2000/svg">
<path d="M11 18.8327C11.7072 18.8327 12.3855 18.5868 12.8856 18.1493C13.3857 17.7117 13.6666 17.1182 13.6666 16.4993C13.6666 15.8805 13.3857 15.287 12.8856 14.8494C12.3855 14.4118 11.7072 14.166 11 14.166C10.2927 14.166 9.61446 14.4118 9.11436 14.8494C8.61427 15.287 8.33331 15.8805 8.33331 16.4993C8.33331 17.1182 8.61427 17.7117 9.11436 18.1493C9.61446 18.5868 10.2927 18.8327 11 18.8327ZM19 8.33268C19.7072 8.33268 20.3855 8.57852 20.8856 9.0161C21.3857 9.45368 21.6666 10.0472 21.6666 10.666V22.3327C21.6666 22.9515 21.3857 23.545 20.8856 23.9826C20.3855 24.4202 19.7072 24.666 19 24.666H2.99998C2.29274 24.666 1.61446 24.4202 1.11436 23.9826C0.614264 23.545 0.333313 22.9515 0.333313 22.3327V10.666C0.333313 10.0472 0.614264 9.45368 1.11436 9.0161C1.61446 8.57852 2.29274 8.33268 2.99998 8.33268H4.33331V5.99935C4.33331 4.45225 5.03569 2.96852 6.28593 1.87456C7.53618 0.780597 9.23187 0.166016 11 0.166016C11.8755 0.166016 12.7424 0.316899 13.5512 0.610052C14.36 0.903204 15.095 1.33288 15.714 1.87456C16.3331 2.41623 16.8241 3.0593 17.1592 3.76703C17.4942 4.47476 17.6666 5.2333 17.6666 5.99935V8.33268H19ZM11 2.49935C9.93911 2.49935 8.9217 2.8681 8.17155 3.52448C7.42141 4.18085 6.99998 5.07109 6.99998 5.99935V8.33268H15V5.99935C15 5.07109 14.5786 4.18085 13.8284 3.52448C13.0783 2.8681 12.0608 2.49935 11 2.49935Z" fill="#FF6B00"/>
</svg>
