<svg width="31" height="31" viewBox="0 0 31 31" fill="none" xmlns="http://www.w3.org/2000/svg">
<path d="M15.5014 0.916504C7.48059 0.916504 0.918091 7.479 0.918091 15.4998C0.918091 23.5207 7.48059 30.0832 15.5014 30.0832C23.5223 30.0832 30.0848 23.5207 30.0848 15.4998C30.0848 7.479 23.5952 0.916504 15.5014 0.916504ZM20.9702 22.2811C17.5431 20.1665 13.241 19.729 8.13684 20.8957C7.62642 21.0415 7.18892 20.6769 7.04309 20.2394C6.89726 19.729 7.26184 19.2915 7.69934 19.1457C13.241 17.9061 18.0535 18.4165 21.8452 20.7498C22.3556 20.9686 22.4285 21.5519 22.2098 21.9894C21.9181 22.4269 21.4077 22.5728 20.9702 22.2811ZM22.4285 18.3436C18.491 15.9373 12.5118 15.2082 7.91809 16.6665C7.33476 16.8123 6.67851 16.5207 6.53267 15.9373C6.38684 15.354 6.67851 14.6978 7.26184 14.5519C12.5848 12.9478 19.1473 13.7498 23.6681 16.5207C24.1056 16.7394 24.3243 17.4686 23.9598 17.979C23.5952 18.4894 22.9389 18.7082 22.4285 18.3436ZM7.18747 12.2186C6.4583 12.4373 5.72913 11.9998 5.51038 11.3436C5.29163 10.6144 5.72913 9.88525 6.38538 9.6665C11.5625 8.13525 20.0937 8.42692 25.4895 11.6353C26.1458 11.9998 26.3645 12.8748 26 13.5311C25.6354 14.0415 24.7604 14.2603 24.1041 13.8957C19.4375 11.1248 11.6354 10.8332 7.18747 12.2186Z" fill="#808080"/>
</svg>
