<svg width="35" height="35" viewBox="0 0 35 35" fill="none" xmlns="http://www.w3.org/2000/svg">
<path d="M15.6771 19.0167C15.6771 18.1854 14.9917 17.5 14.1605 17.5C13.3292 17.5 12.6438 18.1854 12.6438 19.0167C12.6438 19.4189 12.8036 19.8047 13.088 20.0891C13.3725 20.3735 13.7582 20.5333 14.1605 20.5333C14.5627 20.5333 14.9485 20.3735 15.2329 20.0891C15.5173 19.8047 15.6771 19.4189 15.6771 19.0167ZM20.548 22.4729C19.8917 23.1292 18.4917 23.3625 17.5 23.3625C16.5084 23.3625 15.1084 23.1292 14.4521 22.4729C14.4167 22.4349 14.3738 22.4047 14.3261 22.384C14.2784 22.3633 14.227 22.3526 14.175 22.3526C14.1231 22.3526 14.0717 22.3633 14.024 22.384C13.9763 22.4047 13.9334 22.4349 13.898 22.4729C13.86 22.5084 13.8297 22.5513 13.809 22.599C13.7883 22.6466 13.7776 22.698 13.7776 22.75C13.7776 22.802 13.7883 22.8534 13.809 22.901C13.8297 22.9487 13.86 22.9916 13.898 23.0271C14.9334 24.0625 16.9167 24.15 17.5 24.15C18.0834 24.15 20.0667 24.0625 21.1021 23.0271C21.1401 22.9916 21.1704 22.9487 21.1911 22.901C21.2118 22.8534 21.2225 22.802 21.2225 22.75C21.2225 22.698 21.2118 22.6466 21.1911 22.599C21.1704 22.5513 21.1401 22.5084 21.1021 22.4729C20.9563 22.3271 20.7084 22.3271 20.548 22.4729ZM20.8396 17.5C20.0084 17.5 19.323 18.1854 19.323 19.0167C19.323 19.8479 20.0084 20.5333 20.8396 20.5333C21.6709 20.5333 22.3563 19.8479 22.3563 19.0167C22.3563 18.1854 21.6855 17.5 20.8396 17.5Z" fill="#808080"/>
<path d="M17.5 2.9165C9.44996 2.9165 2.91663 9.44984 2.91663 17.4998C2.91663 25.5498 9.44996 32.0832 17.5 32.0832C25.55 32.0832 32.0833 25.5498 32.0833 17.4998C32.0833 9.44984 25.55 2.9165 17.5 2.9165ZM25.9583 19.4394C25.9875 19.6436 26.002 19.8623 26.002 20.0811C26.002 23.3478 22.1958 26.0019 17.5 26.0019C12.8041 26.0019 8.99788 23.3478 8.99788 20.0811C8.99788 19.8623 9.01246 19.6436 9.04163 19.4394C8.29788 19.104 7.78746 18.3603 7.78746 17.4998C7.7853 17.0817 7.90675 16.6722 8.13657 16.3228C8.36639 15.9734 8.69433 15.6997 9.07919 15.5361C9.46405 15.3725 9.88867 15.3263 10.2997 15.4032C10.7108 15.4802 11.0899 15.6769 11.3895 15.9686C12.8625 14.904 14.9041 14.2332 17.1645 14.1603L18.2437 9.07067C18.2583 8.96859 18.3166 8.88109 18.4041 8.83734C18.4916 8.779 18.5937 8.76442 18.6958 8.779L22.225 9.53734C22.3447 9.29464 22.5271 9.08839 22.7534 8.93997C22.9796 8.79155 23.2415 8.70638 23.5118 8.69329C23.7821 8.68019 24.051 8.73965 24.2905 8.8655C24.5301 8.99134 24.7316 9.17899 24.8742 9.40898C25.0168 9.63897 25.0953 9.90293 25.1015 10.1735C25.1077 10.444 25.0414 10.7113 24.9094 10.9475C24.7775 11.1838 24.5848 11.3805 24.3512 11.5172C24.1177 11.6538 23.8518 11.7255 23.5812 11.7248C22.7645 11.7248 22.1083 11.0832 22.0645 10.2811L18.9 9.61025L17.9375 14.1603C20.1687 14.2332 22.1666 14.9186 23.625 15.9686C23.8485 15.7551 24.116 15.593 24.4088 15.4938C24.7015 15.3945 25.0124 15.3603 25.3197 15.3937C25.627 15.4271 25.9233 15.5273 26.1878 15.6872C26.4524 15.8471 26.6788 16.0628 26.8513 16.3194C27.0238 16.5759 27.1381 16.867 27.1863 17.1723C27.2345 17.4777 27.2154 17.7899 27.1303 18.087C27.0453 18.3842 26.8963 18.6592 26.6939 18.8928C26.4914 19.1264 26.2404 19.313 25.9583 19.4394Z" fill="#808080"/>
</svg>
