<svg width="41" height="54" viewBox="0 0 41 54" fill="none" xmlns="http://www.w3.org/2000/svg">
<g clip-path="url(#clip0_6013_6950)">
<path d="M4.48485 27.327C4.48485 25.4368 5.99148 23.9033 7.84848 23.9033C9.70549 23.9033 11.2121 25.4368 11.2121 27.327V35.3156H4.48485V27.327ZM0 27.327V43.3042C0 47.7194 3.5108 51.2929 7.84848 51.2929C12.1862 51.2929 15.697 47.7194 15.697 43.3042V30.5795C15.8231 31.9418 16.2716 33.2899 17.0845 34.4882L26.0892 47.8478C28.5769 51.5354 33.4682 52.4341 37.021 49.8521C40.5739 47.27 41.4358 42.1844 38.9481 38.4968L29.9434 25.1372C27.4557 21.4425 22.5574 20.5509 19.0116 23.1329C17.0494 24.5595 15.9072 26.7563 15.697 29.0531V27.327C15.697 22.9118 12.1862 19.3383 7.84848 19.3383C3.5108 19.3383 0 22.9118 0 27.327ZM20.7845 31.9062C19.6633 30.2442 20.0837 27.9618 21.6184 26.8419C23.104 25.7649 25.1572 26.1073 26.2434 27.7121L30.9384 34.6736L25.3394 38.668L20.7845 31.9062ZM34.4072 46.1359C34.3511 46.1787 34.2951 46.2144 34.239 46.25L34.5193 46.0503C34.4843 46.0789 34.4492 46.1074 34.4072 46.1359Z" fill="#078E85"/>
</g>
<path fill-rule="evenodd" clip-rule="evenodd" d="M17.2986 15.8546C18.1505 15.8546 18.9941 15.6868 19.7811 15.3608C20.5681 15.0348 21.2833 14.557 21.8856 13.9546C22.488 13.3522 22.9658 12.6371 23.2918 11.8501C23.6178 11.063 23.7856 10.2195 23.7856 9.3676C23.7856 8.51571 23.6178 7.67217 23.2918 6.88513C22.9658 6.09808 22.488 5.38296 21.8856 4.78059C21.2833 4.17821 20.5681 3.70038 19.7811 3.37438C18.9941 3.04838 18.1505 2.88058 17.2986 2.88058C15.5782 2.88058 13.9282 3.56404 12.7116 4.78059C11.4951 5.99714 10.8116 7.64713 10.8116 9.3676C10.8116 11.0881 11.4951 12.7381 12.7116 13.9546C13.9282 15.1712 15.5782 15.8546 17.2986 15.8546ZM17.1314 11.9912L20.7353 7.66656L19.6282 6.74396L16.5288 10.4625L14.9251 8.85801L13.9059 9.87719L16.0683 12.0395L16.6261 12.5974L17.1314 11.9912Z" fill="#078E85"/>
<defs>
<clipPath id="clip0_6013_6950">
<rect width="40.3636" height="36.5195" fill="white" transform="translate(0 17.0558)"/>
</clipPath>
</defs>
</svg>
