<svg width="27" height="29" viewBox="0 0 27 29" fill="none" xmlns="http://www.w3.org/2000/svg">
<path d="M20.5291 27.2867L1.47309 2.78667C1.37265 2.65733 1.31052 2.5024 1.29377 2.3395C1.27702 2.1766 1.30632 2.01227 1.37834 1.8652C1.45036 1.71812 1.5622 1.59421 1.70115 1.50756C1.8401 1.4209 2.00058 1.37497 2.16434 1.375H5.781C5.91415 1.3752 6.04549 1.40578 6.16502 1.46441C6.28456 1.52304 6.38914 1.60818 6.4708 1.71333L25.5268 26.2133C25.6273 26.3427 25.6894 26.4976 25.7062 26.6605C25.7229 26.8234 25.6936 26.9877 25.6216 27.1348C25.5496 27.2819 25.4377 27.4058 25.2988 27.4924C25.1598 27.5791 24.9993 27.625 24.8356 27.625H21.2189C21.0858 27.6248 20.9544 27.5942 20.8349 27.5356C20.7154 27.477 20.6108 27.3918 20.5291 27.2867Z" stroke="#808080" stroke-width="1.5"/>
<path d="M25.1666 1.375L1.83325 27.625" stroke="#808080" stroke-width="1.5" stroke-linecap="round"/>
</svg>
