<svg width="24" height="24" viewBox="0 0 24 24" fill="none" xmlns="http://www.w3.org/2000/svg">
<path d="M4.01254 16.8084C4.85571 16.8084 5.66434 17.1434 6.26055 17.7396C6.85676 18.3358 7.19171 19.1444 7.19171 19.9876C7.19171 21.7084 5.76254 23.1668 4.01254 23.1668C2.29171 23.1668 0.833374 21.7084 0.833374 19.9876C0.833374 19.1444 1.16832 18.3358 1.76453 17.7396C2.36074 17.1434 3.16937 16.8084 4.01254 16.8084ZM0.833374 0.475098C6.85158 0.475098 12.6233 2.86582 16.8788 7.12133C21.1343 11.3768 23.525 17.1486 23.525 23.1668H19.398C19.398 18.2431 17.4421 13.5212 13.9605 10.0396C10.479 6.55809 5.75701 4.60218 0.833374 4.60218V0.475098ZM0.833374 8.72927C4.66244 8.72927 8.33467 10.2504 11.0422 12.9579C13.7498 15.6655 15.2709 19.3377 15.2709 23.1668H11.1438C11.1438 20.4323 10.0575 17.8098 8.12394 15.8762C6.19036 13.9426 3.56787 12.8563 0.833374 12.8563V8.72927Z" fill="#808080"/>
</svg>
