<svg width="31" height="25" viewBox="0 0 31 25" fill="none" xmlns="http://www.w3.org/2000/svg">
<path fill-rule="evenodd" clip-rule="evenodd" d="M15.5 0.833496C16.7468 0.833496 18.0258 0.86558 19.2654 0.91808L20.7295 0.988079L22.131 1.0712L23.4435 1.16016L24.6422 1.2535C25.9434 1.3525 27.1678 1.90746 28.0999 2.82062C29.032 3.73378 29.612 4.94657 29.7377 6.24537L29.796 6.86516L29.9054 8.19225C30.0075 9.56745 30.0833 11.0666 30.0833 12.5002C30.0833 13.9337 30.0075 15.4329 29.9054 16.8081L29.796 18.1352L29.7377 18.755C29.6119 20.054 29.0317 21.267 28.0993 22.1801C27.1669 23.0933 25.9422 23.6481 24.6408 23.7468L23.445 23.8387L22.1325 23.9291L20.7295 24.0122L19.2654 24.0822C18.011 24.1366 16.7555 24.1648 15.5 24.1668C14.2444 24.1648 12.989 24.1366 11.7345 24.0822L10.2704 24.0122L8.86892 23.9291L7.55642 23.8387L6.35767 23.7468C5.05656 23.6478 3.83213 23.0929 2.90002 22.1797C1.96792 21.2665 1.38795 20.0538 1.26225 18.755L1.20392 18.1352L1.09454 16.8081C0.983465 15.3747 0.924121 13.9378 0.916626 12.5002C0.916626 11.0666 0.992459 9.56745 1.09454 8.19225L1.20392 6.86516L1.26225 6.24537C1.3879 4.9468 1.96766 3.7342 2.89947 2.82107C3.83127 1.90794 5.05536 1.35283 6.35621 1.2535L7.5535 1.16016L8.866 1.0712L10.2689 0.988079L11.7331 0.91808C12.988 0.863723 14.2439 0.835523 15.5 0.833496ZM12.5833 8.9637V16.0366C12.5833 16.7104 13.3125 17.1304 13.8958 16.795L20.0208 13.2585C20.1541 13.1818 20.2648 13.0713 20.3418 12.9382C20.4187 12.805 20.4593 12.6539 20.4593 12.5002C20.4593 12.3464 20.4187 12.1953 20.3418 12.0622C20.2648 11.929 20.1541 11.8186 20.0208 11.7418L13.8958 8.20683C13.7627 8.13001 13.6118 8.08958 13.4582 8.0896C13.3045 8.08963 13.1536 8.13011 13.0205 8.20697C12.8875 8.28383 12.7771 8.39437 12.7003 8.52747C12.6236 8.66056 12.5832 8.81152 12.5833 8.96516V8.9637Z" fill="#808080"/>
</svg>
